<svg width="1440" height="900" viewBox="0 0 1440 900" fill="none" xmlns="http://www.w3.org/2000/svg">
  <rect width="1440" height="900" rx="44" fill="#050608"/>
  <rect x="32" y="32" width="1376" height="836" rx="36" fill="#0B1118" stroke="rgba(255,255,255,0.08)"/>
  <rect x="72" y="72" width="1296" height="92" rx="28" fill="#111824"/>
  <rect x="72" y="196" width="264" height="632" rx="30" fill="#101722"/>
  <rect x="368" y="196" width="1000" height="188" rx="30" fill="url(#paint0_linear)"/>
  <rect x="368" y="416" width="486" height="412" rx="30" fill="#0F1723"/>
  <rect x="882" y="416" width="486" height="188" rx="30" fill="#111A27"/>
  <rect x="882" y="636" width="486" height="192" rx="30" fill="#111A27"/>
  <rect x="116" y="112" width="164" height="18" rx="9" fill="white" fill-opacity="0.12"/>
  <rect x="1112" y="106" width="220" height="30" rx="15" fill="#FF7E3D"/>
  <rect x="116" y="244" width="176" height="44" rx="16" fill="#151F2C"/>
  <rect x="116" y="308" width="176" height="44" rx="16" fill="#151F2C"/>
  <rect x="116" y="372" width="176" height="44" rx="16" fill="#FF7E3D"/>
  <rect x="416" y="246" width="224" height="24" rx="12" fill="white" fill-opacity="0.12"/>
  <rect x="416" y="292" width="336" height="18" rx="9" fill="white" fill-opacity="0.08"/>
  <rect x="416" y="470" width="390" height="22" rx="11" fill="#16202C"/>
  <rect x="416" y="516" width="344" height="22" rx="11" fill="#16202C"/>
  <rect x="416" y="562" width="372" height="22" rx="11" fill="#16202C"/>
  <rect x="930" y="470" width="390" height="22" rx="11" fill="#16202C"/>
  <rect x="930" y="516" width="344" height="22" rx="11" fill="#16202C"/>
  <rect x="930" y="688" width="390" height="22" rx="11" fill="#16202C"/>
  <rect x="930" y="734" width="344" height="22" rx="11" fill="#16202C"/>
  <defs>
    <linearGradient id="paint0_linear" x1="368" y1="196" x2="1368" y2="384" gradientUnits="userSpaceOnUse">
      <stop stop-color="#13233A"/>
      <stop offset="0.56" stop-color="#183347"/>
      <stop offset="1" stop-color="#10202C"/>
    </linearGradient>
  </defs>
</svg>
