<svg width="1440" height="900" viewBox="0 0 1440 900" fill="none" xmlns="http://www.w3.org/2000/svg">
  <rect width="1440" height="900" rx="44" fill="#050608"/>
  <rect x="32" y="32" width="1376" height="836" rx="36" fill="#0C121B" stroke="rgba(255,255,255,0.08)"/>
  <rect x="72" y="72" width="188" height="756" rx="30" fill="#0F1723"/>
  <rect x="292" y="72" width="1076" height="220" rx="30" fill="url(#paint0_linear)"/>
  <rect x="292" y="324" width="1076" height="504" rx="30" fill="#0F1722"/>
  <rect x="110" y="122" width="112" height="20" rx="10" fill="white" fill-opacity="0.12"/>
  <rect x="110" y="174" width="112" height="48" rx="18" fill="#FF7E3D"/>
  <rect x="110" y="244" width="112" height="48" rx="18" fill="#151F2C"/>
  <rect x="110" y="314" width="112" height="48" rx="18" fill="#151F2C"/>
  <rect x="332" y="120" width="204" height="24" rx="12" fill="white" fill-opacity="0.12"/>
  <rect x="332" y="162" width="374" height="16" rx="8" fill="white" fill-opacity="0.08"/>
  <rect x="332" y="376" width="160" height="38" rx="14" fill="#151F2C"/>
  <rect x="508" y="376" width="160" height="38" rx="14" fill="#151F2C"/>
  <rect x="684" y="376" width="160" height="38" rx="14" fill="#151F2C"/>
  <rect x="332" y="448" width="996" height="54" rx="16" fill="#131D2A"/>
  <rect x="332" y="524" width="996" height="54" rx="16" fill="#131D2A"/>
  <rect x="332" y="600" width="996" height="54" rx="16" fill="#131D2A"/>
  <rect x="332" y="676" width="996" height="54" rx="16" fill="#131D2A"/>
  <defs>
    <linearGradient id="paint0_linear" x1="292" y1="72" x2="1368" y2="292" gradientUnits="userSpaceOnUse">
      <stop stop-color="#11263F"/>
      <stop offset="0.45" stop-color="#12304A"/>
      <stop offset="1" stop-color="#101B2A"/>
    </linearGradient>
  </defs>
</svg>
