<svg width="1440" height="900" viewBox="0 0 1440 900" fill="none" xmlns="http://www.w3.org/2000/svg">
  <rect width="1440" height="900" rx="44" fill="#050608"/>
  <rect x="32" y="32" width="1376" height="836" rx="36" fill="#0B1118" stroke="rgba(255,255,255,0.08)"/>
  <rect x="72" y="72" width="300" height="756" rx="30" fill="#0E1622"/>
  <rect x="404" y="72" width="964" height="220" rx="30" fill="url(#paint0_linear)"/>
  <rect x="404" y="324" width="964" height="246" rx="30" fill="#0F1824"/>
  <rect x="404" y="602" width="964" height="226" rx="30" fill="#101823"/>
  <circle cx="222" cy="226" r="92" fill="#111A28"/>
  <circle cx="222" cy="226" r="58" fill="#FF7E3D" fill-opacity="0.86"/>
  <rect x="122" y="366" width="200" height="24" rx="12" fill="white" fill-opacity="0.12"/>
  <rect x="122" y="404" width="148" height="16" rx="8" fill="white" fill-opacity="0.07"/>
  <rect x="450" y="114" width="236" height="24" rx="12" fill="white" fill-opacity="0.12"/>
  <rect x="450" y="154" width="312" height="16" rx="8" fill="white" fill-opacity="0.08"/>
  <rect x="450" y="374" width="874" height="22" rx="11" fill="#151F2C"/>
  <rect x="450" y="416" width="774" height="22" rx="11" fill="#151F2C"/>
  <rect x="450" y="458" width="824" height="22" rx="11" fill="#151F2C"/>
  <rect x="450" y="642" width="200" height="142" rx="22" fill="#182230"/>
  <rect x="684" y="642" width="200" height="142" rx="22" fill="#1B2634"/>
  <rect x="918" y="642" width="200" height="142" rx="22" fill="#16202B"/>
  <rect x="1152" y="642" width="172" height="142" rx="22" fill="#192433"/>
  <defs>
    <linearGradient id="paint0_linear" x1="404" y1="72" x2="1368" y2="292" gradientUnits="userSpaceOnUse">
      <stop stop-color="#143628"/>
      <stop offset="0.46" stop-color="#123124"/>
      <stop offset="1" stop-color="#0F1D1A"/>
    </linearGradient>
  </defs>
</svg>
