<svg width="1440" height="900" viewBox="0 0 1440 900" fill="none" xmlns="http://www.w3.org/2000/svg">
  <rect width="1440" height="900" rx="44" fill="#050608"/>
  <rect x="32" y="32" width="1376" height="836" rx="36" fill="#0A111B" stroke="rgba(255,255,255,0.08)"/>
  <rect x="72" y="72" width="1296" height="620" rx="28" fill="url(#paint0_linear)"/>
  <rect x="72" y="722" width="1296" height="106" rx="24" fill="#0F1723"/>
  <circle cx="210" cy="775" r="24" fill="white" fill-opacity="0.12"/>
  <circle cx="278" cy="775" r="24" fill="#FF7E3D"/>
  <circle cx="346" cy="775" r="24" fill="white" fill-opacity="0.12"/>
  <rect x="404" y="764" width="492" height="20" rx="10" fill="white" fill-opacity="0.08"/>
  <rect x="404" y="764" width="308" height="20" rx="10" fill="#FF7E3D"/>
  <rect x="964" y="748" width="138" height="52" rx="18" fill="#151F2C"/>
  <rect x="1120" y="748" width="200" height="52" rx="18" fill="#151F2C"/>
  <rect x="120" y="132" width="224" height="30" rx="15" fill="white" fill-opacity="0.14"/>
  <rect x="120" y="182" width="382" height="74" rx="22" fill="white" fill-opacity="0.09"/>
  <rect x="120" y="286" width="180" height="48" rx="18" fill="#FF7E3D"/>
  <defs>
    <linearGradient id="paint0_linear" x1="72" y1="72" x2="1368" y2="692" gradientUnits="userSpaceOnUse">
      <stop stop-color="#1E2C4A"/>
      <stop offset="0.5" stop-color="#0B1629"/>
      <stop offset="1" stop-color="#111827"/>
    </linearGradient>
  </defs>
</svg>
