<svg xmlns="http://www.w3.org/2000/svg" viewBox="0 0 512 512" width="512" height="512">
  <defs>
    <linearGradient id="shell" x1="72" y1="64" x2="384" y2="430" gradientUnits="userSpaceOnUse">
      <stop offset="0%" stop-color="#2d4eaf" />
      <stop offset="58%" stop-color="#142457" />
      <stop offset="100%" stop-color="#0b1436" />
    </linearGradient>
    <linearGradient id="beam" x1="128" y1="164" x2="382" y2="164" gradientUnits="userSpaceOnUse">
      <stop offset="0%" stop-color="#ffe76c" />
      <stop offset="100%" stop-color="#ffcc34" />
    </linearGradient>
    <linearGradient id="beam-soft" x1="140" y1="258" x2="382" y2="258" gradientUnits="userSpaceOnUse">
      <stop offset="0%" stop-color="#fff1a7" />
      <stop offset="100%" stop-color="#ffe13f" />
    </linearGradient>
    <filter id="glow" x="-30%" y="-30%" width="160%" height="160%">
      <feGaussianBlur stdDeviation="18" result="blur" />
      <feMerge>
        <feMergeNode in="blur" />
        <feMergeNode in="SourceGraphic" />
      </feMerge>
    </filter>
  </defs>

  <path d="M116 74H286L398 186V300L286 412H116c-22.1 0-40-17.9-40-40V114c0-22.1 17.9-40 40-40Z" fill="url(#shell)" />
  <path d="M286 74L398 186H310c-13.3 0-24-10.7-24-24V74Z" fill="#3b61c6" opacity="0.94" />
  <path
    d="M116 74H286L398 186V300L286 412H116c-22.1 0-40-17.9-40-40V114c0-22.1 17.9-40 40-40Z"
    fill="none"
    stroke="rgba(255,255,255,0.22)"
    stroke-width="9"
  />

  <g filter="url(#glow)">
    <path d="M148 256l36-36 36 36-36 36-36-36Z" fill="#ffe13f" />
    <path d="M186 152h112l84 84H270Z" fill="url(#beam)" />
    <path d="M200 236h132l50 20-50 20H200Z" fill="url(#beam-soft)" />
    <path d="M186 360h112l84-84H270Z" fill="url(#beam)" />
  </g>

  <path d="M132 124h116" stroke="rgba(255,255,255,0.26)" stroke-width="10" stroke-linecap="round" />
  <circle cx="184" cy="256" r="72" fill="rgba(255,225,63,0.08)" />
</svg>
